<svg xmlns="http://www.w3.org/2000/svg" xmlns:xlink="http://www.w3.org/1999/xlink" viewBox="0 0 29 29"><defs><path id="a" d="M819.211 8374.087c-3.749 0-4.193.014-5.673.08-1.369.062-2.112.288-2.607.478a4.356 4.356 0 0 0-1.614 1.036 4.296 4.296 0 0 0-1.05 1.594c-.193.488-.422 1.222-.484 2.574-.068 1.46-.082 1.9-.082 5.6 0 3.7.014 4.138.082 5.6.062 1.35.291 2.085.483 2.573a4.288 4.288 0 0 0 1.05 1.594 4.35 4.35 0 0 0 1.615 1.036c.495.19 1.238.416 2.607.478 1.48.066 1.924.08 5.673.08 3.75 0 4.193-.014 5.673-.08 1.37-.062 2.113-.288 2.607-.478a4.35 4.35 0 0 0 1.615-1.036 4.29 4.29 0 0 0 1.05-1.594c.192-.488.42-1.222.483-2.573.068-1.462.082-1.9.082-5.6 0-3.7-.014-4.14-.082-5.6-.062-1.352-.29-2.086-.483-2.574a4.299 4.299 0 0 0-1.05-1.594 4.357 4.357 0 0 0-1.615-1.036c-.494-.19-1.238-.416-2.607-.477-1.48-.067-1.924-.081-5.673-.081 0 0 3.749 0 0 0zm0-2.497c3.813 0 4.291.016 5.789.083 1.494.067 2.515.302 3.408.644a6.885 6.885 0 0 1 2.486 1.599 6.793 6.793 0 0 1 1.62 2.454c.347.882.584 1.89.652 3.364.069 1.479.085 1.95.085 5.715 0 3.764-.016 4.235-.085 5.714-.068 1.475-.305 2.482-.652 3.364a6.782 6.782 0 0 1-1.62 2.454 6.892 6.892 0 0 1-2.486 1.6c-.893.342-1.914.576-3.408.643-1.498.067-1.976.083-5.789.083-3.813 0-4.291-.016-5.788-.083-1.495-.067-2.515-.301-3.408-.644a6.892 6.892 0 0 1-2.487-1.599 6.784 6.784 0 0 1-1.62-2.454c-.347-.882-.584-1.89-.652-3.364-.068-1.479-.085-1.95-.085-5.714 0-3.764.017-4.236.085-5.715.068-1.475.305-2.482.652-3.364a6.784 6.784 0 0 1 1.62-2.454 6.885 6.885 0 0 1 2.487-1.599c.893-.342 1.913-.577 3.408-.644 1.497-.067 1.975-.083 5.788-.083zm7.21 13.859c0 3.93-3.228 7.116-7.21 7.116-3.982 0-7.21-3.186-7.21-7.116 0-3.93 3.228-7.117 7.21-7.117 3.982 0 7.21 3.186 7.21 7.117zm-2.53 0c0-2.552-2.095-4.62-4.68-4.62-2.585 0-4.68 2.068-4.68 4.62 0 2.551 2.095 4.62 4.68 4.62 2.585 0 4.68-2.069 4.68-4.62zm4.5-7.398c0 .918-.755 1.663-1.685 1.663s-1.685-.745-1.685-1.663c0-.92.754-1.663 1.685-1.663.93 0 1.684.744 1.684 1.663z"/></defs><use fill="#fff" xlink:href="#a" transform="translate(-805 -8371)"/></svg>