<svg xmlns="http://www.w3.org/2000/svg" xmlns:xlink="http://www.w3.org/1999/xlink" viewBox="0 0 30 29"><defs><path id="a" d="M548.091 8386.03c-.155 2.84-2.297 5.243-5.553 5.243-2.922 0-5.15-2.113-5.15-5.456 0-2.986 1.842-5.615 5.162-5.615h.109c2.877 0 5.26 1.944 5.425 5.175zm-5.525-8.719c-4.384 0-8.24 3.928-8.24 8.385 0 4.413 3.856 8.295 8.24 8.295 2.22 0 4.256-.891 5.786-2.42l.023.824c-.02 2.52 3.244 4.203 5.441 2.474 4.851-3.806 5.141-13.6.168-18.829-4.758-5.002-12.648-5.994-18.633-2.409-7.823 4.686-7.98 13.73-5.03 18.872 4.366 7.613 13.712 7.758 17.07 6.318 2.221-.951 1.233-3.863-.906-2.994-4.226 1.718-11.335-.004-13.82-5.776-2.28-5.293.067-10.928 3.734-13.474 3.449-2.393 9.935-3.095 14.769 1.164 5.186 4.568 2.985 12.452 1.144 14.357-.471.485-1.322.094-1.246-.661l-.005-11.54c0-.324-.221-1.35-1.299-1.35h-.174c-.689 0-1.185.56-1.185 1.303v-.006c-1.531-1.546-3.618-2.533-5.837-2.533z"/></defs><use fill="#fff" xlink:href="#a" transform="translate(-528 -8371)"/></svg>