<svg xmlns="http://www.w3.org/2000/svg" xmlns:xlink="http://www.w3.org/1999/xlink" viewBox="0 0 33 32"><defs><path id="a" d="M490.92 8392.916c0 4.944-4.028 8.951-8.998 8.951a8.994 8.994 0 0 1-4.463-1.18 15.25 15.25 0 0 1-2.565.217c-8.332 0-15.087-6.72-15.087-15.009 0-.846.072-1.676.207-2.484a8.871 8.871 0 0 1-1.248-4.548c0-4.943 4.028-8.95 8.998-8.95 1.64 0 3.176.438 4.5 1.201.854-.15 1.733-.228 2.63-.228 8.332 0 15.087 6.72 15.087 15.01 0 .89-.08 1.763-.229 2.612a8.871 8.871 0 0 1 1.168 4.408zm-22.816.13c1.425 1.418 3.622 2.582 7.792 2.362 5.246-.422 7.396-3.714 6.502-7.244-1.163-3.775-4.77-3.631-9.27-4.813-3.208-1.03-1.802-3.973 1.269-3.925 3.553-.045 3.524 2.804 5.678 2.746 1.52-.042 2.668-2.015.54-3.82-1.825-1.479-4.286-2.175-7.622-1.88-2.805.254-5.722 1.761-5.705 5.426-.027 3.801 3.103 4.76 6.842 5.557 2.443.597 4.923.937 4.079 3.172-1.142 2.587-5.033 1.699-6.272.865-1.117-.768-1.618-2.546-3.12-2.466-1.63.086-2.445 2.06-.713 4.02z"/></defs><g transform="translate(-458 -8370)" fill="#fff"><use xlink:href="#a"/><use xlink:href="#a"/></g></svg>