<svg xmlns="http://www.w3.org/2000/svg" xmlns:xlink="http://www.w3.org/1999/xlink" viewBox="0 0 37 21"><defs><path id="a" d="M680.515 8395.615h2.158s.652-.071.986-.425c.306-.325.296-.936.296-.936s-.042-2.858 1.302-3.28c1.326-.415 3.027 2.763 4.83 3.985 1.365.925 2.4.722 2.4.722l4.824-.066s2.523-.154 1.326-2.111c-.098-.16-.697-1.449-3.586-4.096-3.024-2.77-2.619-2.322 1.024-7.115 2.218-2.919 3.105-4.7 2.828-5.464-.264-.727-1.896-.535-1.896-.535l-5.43.033s-.403-.054-.701.122c-.292.173-.479.575-.479.575s-.86 2.26-2.006 4.18c-2.418 4.053-3.385 4.267-3.78 4.016-.92-.587-.69-2.356-.69-3.614 0-3.928.604-5.566-1.175-5.99-.59-.14-1.025-.233-2.534-.248-1.938-.02-3.578.005-4.506.454-.618.3-1.095.964-.804 1.003.359.047 1.171.216 1.602.795.557.747.537 2.425.537 2.425s.32 4.624-.746 5.198c-.732.394-1.736-.41-3.892-4.087-1.104-1.884-1.938-3.965-1.938-3.965s-.161-.39-.448-.598c-.348-.252-.834-.332-.834-.332l-5.16.033s-.775.021-1.06.354c-.252.296-.02.907-.02.907s4.04 9.33 8.614 14.032c4.196 4.31 8.958 4.028 8.958 4.028z"/></defs><use fill="#fff" xlink:href="#a" transform="translate(-662 -8375)"/></svg>