<svg xmlns="http://www.w3.org/2000/svg" xmlns:xlink="http://www.w3.org/1999/xlink" viewBox="0 0 30 35"><defs><path id="a" d="M624.26 8392.182v.876h-1.753v-.876c0-.874.293-1.31.879-1.31.58 0 .874.436.874 1.31zm3.916.584c0 2.211-.003 4.555-.508 6.702a3.636 3.636 0 0 1-3.137 2.786c-3.598.392-7.24.394-10.865.392-3.626.002-7.268 0-10.866-.392a3.635 3.635 0 0 1-3.136-2.786c-.505-2.147-.505-4.49-.505-6.702 0-2.211.006-4.554.511-6.702a3.634 3.634 0 0 1 3.136-2.786c3.598-.393 7.24-.394 10.866-.393 3.626-.001 7.267 0 10.865.393a3.636 3.636 0 0 1 3.137 2.786c.505 2.148.502 4.49.502 6.702zm-20.74-6.557h-6.114v1.787h2.063v10.904h1.95v-10.904h2.1zm5.298 3.234h-1.755v7.228c-.39.537-.757.801-1.109.801-.234 0-.367-.134-.41-.4-.016-.056-.016-.265-.016-.667v-6.962h-1.753v7.478c0 .667.058 1.12.155 1.406.175.479.564.703 1.13.703.644 0 1.306-.38 2.003-1.162v1.032h1.755zm6.661 2.854c0-.896-.06-1.52-.177-1.901-.234-.708-.703-1.068-1.401-1.068-.645 0-1.246.345-1.812 1.026v-4.145h-1.754v12.69h1.754v-.916c.585.708 1.189 1.047 1.812 1.047.698 0 1.167-.36 1.401-1.062.117-.401.177-1.031.177-1.906zm6.618.229c0-1.01-.175-1.75-.542-2.228-.492-.647-1.19-.97-2.069-.97-.895 0-1.593.323-2.1.97-.373.478-.542 1.217-.542 2.228v3.312c0 1.004.19 1.75.563 2.224.508.646 1.205.968 2.123.968.915 0 1.635-.339 2.12-1.025.213-.303.351-.647.41-1.027.016-.17.037-.551.037-1.103v-.25h-1.789c0 .686-.022 1.067-.039 1.16-.1.459-.351.687-.783.687-.602 0-.895-.437-.895-1.312v-1.676h3.506zm-8.371-.364v4.035c0 .853-.257 1.275-.763 1.275-.289 0-.581-.134-.874-.422v-5.763c.293-.282.585-.416.874-.416.506 0 .763.437.763 1.29zm-9.374-16.182v5.19h-1.965v-5.19c-.177-.921-.57-2.269-1.2-4.056-.414-1.189-.846-2.383-1.259-3.57h2.067l1.394 5.032 1.34-5.033h1.986zm7.063 4.345c-.49.65-1.179.977-2.067.977-.882 0-1.572-.327-2.062-.977-.377-.48-.555-1.233-.555-2.247v-3.346c0-1.02.178-1.766.555-2.25.49-.652 1.18-.979 2.062-.979.888 0 1.576.327 2.067.979.37.484.55 1.23.55 2.25v3.346c0 1.014-.18 1.767-.55 2.247zm-1.222-5.94c0-.884-.274-1.323-.845-1.323s-.846.44-.846 1.323v4.019c0 .883.275 1.325.846 1.325.57 0 .845-.442.845-1.325zm6.55 6.785v-1.042c-.705.79-1.377 1.174-2.023 1.174-.57 0-.965-.226-1.141-.71-.098-.29-.157-.747-.157-1.42v-7.553h1.766v7.032c0 .406 0 .617.021.673.04.269.178.405.415.405.354 0 .727-.268 1.12-.81v-7.3h1.771v9.55z"/></defs><use fill="#fff" xlink:href="#a" transform="translate(-599 -8368)"/></svg>